<svg width="200" height="200" viewBox="0 0 200 200" fill="none" xmlns="http://www.w3.org/2000/svg">
<path d="M2 18C2 9.16345 9.16344 2 18 2H114C122.837 2 130 9.16344 130 18V182C130 190.837 122.837 198 114 198H18C9.16344 198 2 190.837 2 182V18Z" fill="url(#paint0_linear_2557_151)"/>
<path d="M24 79C24 72.9249 28.9249 68 35 68H97C103.075 68 108 72.9249 108 79V81C108 87.0751 103.075 92 97 92H35C28.9249 92 24 87.0751 24 81V79Z" fill="#FF9E00"/>
<path d="M24 119C24 112.925 28.9249 108 35 108H97C103.075 108 108 112.925 108 119V121C108 127.075 103.075 132 97 132H35C28.9249 132 24 127.075 24 121V119Z" fill="#FF9E00"/>
<path d="M52 159C52 152.925 56.9249 148 63 148H97C103.075 148 108 152.925 108 159V161C108 167.075 103.075 172 97 172H63C56.9249 172 52 167.075 52 161V159Z" fill="#FF9E00"/>
<path d="M24 39C24 32.9249 28.9249 28 35 28H97C103.075 28 108 32.9249 108 39V41C108 47.0751 103.075 52 97 52H35C28.9249 52 24 47.0751 24 41V39Z" fill="#FF9E00"/>
<mask id="mask0_2557_151" style="mask-type:alpha" maskUnits="userSpaceOnUse" x="2" y="2" width="128" height="196">
<path d="M2 18C2 9.16345 9.16344 2 18 2H114C122.837 2 130 9.16344 130 18V182C130 190.837 122.837 198 114 198H18C9.16344 198 2 190.837 2 182V18Z" fill="url(#paint1_linear_2557_151)"/>
</mask>
<g mask="url(#mask0_2557_151)">
<g filter="url(#filter0_f_2557_151)">
<path fill-rule="evenodd" clip-rule="evenodd" d="M177.428 72.3137C171.18 66.0653 161.049 66.0653 154.801 72.3137L83.8985 143.216C83.1063 144.008 82.6031 145.043 82.4696 146.156L79.1912 173.476C78.8052 176.693 81.5342 179.422 84.7513 179.036L112.071 175.757C113.184 175.624 114.219 175.121 115.011 174.328L185.913 103.426C192.162 97.178 192.162 87.0474 185.913 80.799L177.428 72.3137Z" fill="black" fill-opacity="0.2"/>
</g>
</g>
<path fill-rule="evenodd" clip-rule="evenodd" d="M185.427 60.3137C179.179 54.0653 169.048 54.0653 162.8 60.3137L91.8981 131.216C91.1059 132.008 90.6027 133.043 90.4692 134.156L87.1908 161.476C86.8048 164.693 89.5338 167.422 92.7509 167.036L120.071 163.757C121.183 163.624 122.218 163.121 123.011 162.328L193.913 91.4264C200.161 85.178 200.161 75.0474 193.913 68.799L185.427 60.3137Z" fill="url(#paint2_linear_2557_151)"/>
<defs>
<filter id="filter0_f_2557_151" x="49.1543" y="37.6274" width="171.445" height="171.445" filterUnits="userSpaceOnUse" color-interpolation-filters="sRGB">
<feFlood flood-opacity="0" result="BackgroundImageFix"/>
<feBlend mode="normal" in="SourceGraphic" in2="BackgroundImageFix" result="shape"/>
<feGaussianBlur stdDeviation="15" result="effect1_foregroundBlur_2557_151"/>
</filter>
<linearGradient id="paint0_linear_2557_151" x1="66" y1="2" x2="66" y2="198" gradientUnits="userSpaceOnUse">
<stop stop-color="#FECF3E"/>
<stop offset="1" stop-color="#FFB600"/>
</linearGradient>
<linearGradient id="paint1_linear_2557_151" x1="66" y1="2" x2="66" y2="198" gradientUnits="userSpaceOnUse">
<stop stop-color="#FECF3E"/>
<stop offset="1" stop-color="#FFB600"/>
</linearGradient>
<linearGradient id="paint2_linear_2557_151" x1="142.877" y1="55.6274" x2="142.877" y2="167.072" gradientUnits="userSpaceOnUse">
<stop stop-color="#09A6F3"/>
<stop offset="1" stop-color="#0A85ED"/>
</linearGradient>
</defs>
</svg>
